<?xml version="1.0" encoding="utf-8"?>
<!-- Generator: Adobe Illustrator 24.3.0, SVG Export Plug-In . SVG Version: 6.00 Build 0)  -->
<svg version="1.1" id="Layer_1" xmlns="http://www.w3.org/2000/svg" xmlns:xlink="http://www.w3.org/1999/xlink" x="0px" y="0px"
	 viewBox="0 0 800 800" style="enable-background:new 0 0 800 800;" xml:space="preserve">
<style type="text/css">
	.st0{fill:#FFFFFF;fill-opacity:1.000000e-02;}
	.st1{fill:#2F88FF;stroke:#000000;stroke-width:66.6667;stroke-linecap:round;stroke-linejoin:round;stroke-miterlimit:66.6667;}
	.st2{fill:#D4D4D4;stroke:#000000;stroke-width:66.6667;stroke-linecap:round;stroke-linejoin:round;stroke-miterlimit:66.6667;}
	.st3{fill:none;stroke:#000000;stroke-width:66.6667;stroke-linecap:round;stroke-linejoin:round;stroke-miterlimit:66.6667;}
	.st4{fill:none;stroke:#000000;stroke-width:32;stroke-linecap:round;stroke-linejoin:round;stroke-miterlimit:66.6667;}
</style>
<rect y="0" class="st0" width="800" height="800"/>
<rect x="66.7" y="133.3" class="st1" width="666.7" height="266.7"/>
<rect x="66.7" y="400" class="st2" width="666.7" height="266.7"/>
<path class="st3" d="M166.7,400v133.3"/>
<path class="st3" d="M266.7,400v133.3"/>
<path class="st4" d="M278,238l-36.3,79.3v-0.8l-25.3-55.3H216l-25.3,55.3v0.8L154.3,238"/>
<path class="st4" d="M461.8,238l-36.3,79.3v-0.8l-25.3-55.3h-0.4l-25.3,55.3v0.8L338.2,238"/>
<path class="st4" d="M645.7,238l-36.3,79.3v-0.8L584,261.2h-0.4l-25.3,55.3v0.8L522,238"/>
<path class="st3" d="M433.3,400v133.3"/>
<path class="st3" d="M533.3,400v133.3"/>
<path class="st3" d="M633.3,400v133.3"/>
</svg>
